PathFileType	4	(X/Y/Z)	/Users/rkoike/Documents/python/sports2d/webcam_20250611_152632/webcam_20250611_152632_px_person02.trc
DataRate	CameraRate	NumFrames	NumMarkers	Units	OrigDataRate	OrigDataStartFrame	OrigNumFrames
30	30	7	22	m	30	1242	2485
Frame#	Time	Hip			RHip			RKnee			RAnkle			RBigToe			RSmallToe			RHeel			LHip			LKnee			LAnkle			LBigToe			LSmallToe			LHeel			Neck			Head			Nose			RShoulder			RElbow			RWrist			LShoulder			LElbow			LWrist			
		X1	Y1	Z1	X2	Y2	Z2	X3	Y3	Z3	X4	Y4	Z4	X5	Y5	Z5	X6	Y6	Z6	X7	Y7	Z7	X8	Y8	Z8	X9	Y9	Z9	X10	Y10	Z10	X11	Y11	Z11	X12	Y12	Z12	X13	Y13	Z13	X14	Y14	Z14	X15	Y15	Z15	X16	Y16	Z16	X17	Y17	Z17	X18	Y18	Z18	X19	Y19	Z19	X20	Y20	Z20	X21	Y21	Z21	X22	Y22	Z22
1242	41.416666666666664	743.661713904695	477.0753169558277	0.0	877.2860661856316	502.748045719732	0.0	900.7620090170493	708.8235002469346	0.0	1061.96240234375	712.509765625	0.0	1310.27294921875	252.87109375	0.0	1229.7041015625	239.6630859375	0.0	1224.4208984375	717.7929687500001	0.0	617.518746273203	502.31568147528753	0.0	632.9364745254979	712.8808789626864	0.0	1071.2080078125	727.03857421875	0.0	629.8403795030381	611.4361839161979	0.0			0.0	989.3256765408443	702.8535339434749	0.0	773.782360436351	20.236826202179174	0.0	1015.734375	94.375	0.0	1007.8095703125001	149.8486328125	0.0	1020.4647807902082	-2.9079147196573807	0.0	1089.440113732165	203.1193073748999	0.0	1058.4053720704615	520.1673461214668	0.0	523.3675208378417	16.926157280791863	0.0	484.692551829945	246.23230999414082	0.0	563.5660164235046	493.2493120302933	0.0
1243	41.45001341921631	742.2208913321709	476.505151161335	0.0	874.9116209941332	505.56383345634686	0.0	898.7808729828813	710.0786031856634	0.0	1061.96240234375	712.509765625	0.0	1310.27294921875	252.87109375	0.0	1229.7041015625	239.6630859375	0.0	1224.4208984375	717.7929687500001	0.0	617.1765421505153	502.903412598802	0.0	630.6272149772601	713.7130080439389	0.0	1071.2080078125	727.03857421875	0.0	629.8403795030381	611.4361839161979	0.0			0.0	989.3256765408443	702.8535339434749	0.0	768.6627780325616	22.455893558514482	0.0	1015.734375	94.375	0.0	1007.8095703125001	149.8486328125	0.0	1016.7361181284554	1.165376307004124	0.0	1092.2083152246196	202.58553172071873	0.0	1058.2004974147865	518.6346537760785	0.0	521.4987871378826	17.580360732931744	0.0	482.5959297891502	247.32379929193215	0.0	564.2125673938738	493.4913652654686	0.0
1244	41.483360171765966	741.8930287744375	476.104233105301	0.0	876.7677005482386	503.9986312774917	0.0	901.6478678844915	711.0949045748474	0.0	1061.96240234375	712.509765625	0.0	1310.27294921875	252.87109375	0.0	1229.7041015625	239.6630859375	0.0	1224.4208984375	717.7929687500001	0.0	618.0083675897644	501.326764000673	0.0	627.9989966507595	713.9976894529627	0.0	1071.2080078125	727.03857421875	0.0	629.8403795030381	611.4361839161979	0.0			0.0	989.3256765408441	702.8535339434749	0.0	771.1707193646184	22.980412116527646	0.0	1015.734375	94.375	0.0	1007.8095703125001	149.8486328125	0.0	1019.1577194079423	-0.4106862677327274	0.0	1092.6635608675215	203.83544771058237	0.0	1059.059781971737	519.9598042398028	0.0	522.6532380841172	16.309560780096312	0.0	483.1593825175176	249.19419236838712	0.0	563.9199160059004	494.99074450980714	0.0
1245	41.51670692431561	741.66911373687	474.34602130885986	0.0	880.3203996477608	498.69117048959146	0.0	910.0600503441177	710.1815109135242	0.0	1061.96240234375	712.509765625	0.0	1310.27294921875	252.87109375	0.0	1229.7041015625	239.6630859375	0.0	1224.4208984375	717.7929687500001	0.0	618.3278802544777	497.82823602339226	0.0	628.2112333303445	713.1727393087154	0.0	1071.2080078125	727.03857421875	0.0	629.8403795030381	611.4361839161979	0.0			0.0	989.3256765408441	702.8535339434749	0.0	780.5288024423133	20.88289453018033	0.0	1015.734375	94.375	0.0	1007.8095703125001	149.8486328125	0.0	1026.2916318641023	-7.969407867954323	0.0	1091.7142157110811	206.27688110536468	0.0	1060.556225851295	522.3487402745297	0.0	526.4262992471753	12.640335853201629	0.0	486.0349415114128	250.79819985008194	0.0	562.4390911533035	498.36868001065767	0.0
1246	41.55005367686527	739.2325760822603	470.81078193763955	0.0	879.9903548922832	495.52958863890024	0.0	921.7015480662815	707.5058967371477	0.0	1061.96240234375	712.509765625	0.0	1310.27294921875	252.87109375	0.0	1229.7041015625	239.6630859375	0.0	1224.4208984375	717.7929687500001	0.0	616.1510185220834	494.8399268100928	0.0	631.7222748743577	712.2158194588993	0.0	1071.2080078125	727.03857421875	0.0	629.8403795030381	611.4361839161979	0.0			0.0	989.3256765408443	702.8535339434749	0.0	788.1337542037577	18.398144410752046	0.0	1015.734375	94.375	0.0	1007.8095703125001	149.8486328125	0.0	1032.5009362282005	-14.09034538398541	0.0	1092.5092859471442	207.91859405141565	0.0	1061.4622738225364	522.0166078166644	0.0	529.7893906012548	7.845669376616425	0.0	487.79620187471335	250.57853449319074	0.0	560.3944884049928	501.38031064887105	0.0
1247	41.583400429414915	737.2398539591626	469.0727997022108	0.0	876.3952754422683	497.14310891336777	0.0	927.0661553531424	705.6050498306615	0.0	1061.96240234375	712.509765625	0.0	1310.27294921875	252.87109375	0.0	1229.7041015625	239.6630859375	0.0	1224.4208984375	717.7929687500001	0.0	613.9123130856657	494.858640569947	0.0	634.7354569394324	711.954630271774	0.0	1071.2080078125	727.03857421875	0.0	629.8403795030381	611.4361839161979	0.0			0.0	989.3256765408443	702.8535339434749	0.0	786.6969361824943	17.399555595663273	0.0	1015.734375	94.375	0.0	1007.8095703125001	149.8486328125	0.0	1032.8457699742273	-12.388493775250563	0.0	1094.9671501797911	207.81324274762193	0.0	1060.878775989326	519.8166125037046	0.0	529.7492146628534	6.453216163327181	0.0	486.9859626494469	248.9788857187655	0.0	559.6628871882815	501.1722926545487	0.0
1248	41.61674718196457	739.0351657819781	471.4313141275122	0.0	875.9358979454919	499.11622052328823	0.0	922.2283571090912	706.1150102164704	0.0	1061.96240234375	712.509765625	0.0	1310.27294921875	252.87109375	0.0	1229.7041015625	239.6630859375	0.0	1224.4208984375	717.7929687500001	0.0	614.2635490154499	496.71567672389574	0.0	633.8430405836979	712.2552453344186	0.0	1071.2080078125	727.03857421875	0.0	629.8403795030381	611.4361839161979	0.0			0.0	989.3256765408441	702.8535339434749	0.0	781.4345522126479	16.91990462659328	0.0	1015.734375	94.375	0.0	1007.8095703125001	149.8486328125	0.0	1030.5290137882319	-7.1190789871140145	0.0	1096.2315456697927	207.05363082587874	0.0	1059.7896388371423	520.5470481227877	0.0	527.7474810026561	9.695754500425254	0.0	485.9781780405549	247.82833743107827	0.0	560.2357789201616	499.0186054191802	0.0
